<mxfile host="app.diagrams.net" modified="2022-10-23T13:59:18.816Z" agent="5.0 (Windows NT 10.0; Win64; x64) AppleWebKit/537.36 (KHTML, like Gecko) Chrome/106.0.0.0 Safari/537.36" etag="t2eDXNHsfw0pvIz32Gdt" version="20.3.7" type="github">
  <diagram id="IV6zwxyijD398F6HN0bB" name="第 1 页">
    <mxGraphModel dx="2391" dy="1012" grid="1" gridSize="10" guides="1" tooltips="1" connect="1" arrows="1" fold="1" page="1" pageScale="1" pageWidth="827" pageHeight="1169" math="0" shadow="0">
      <root>
        <mxCell id="0" />
        <mxCell id="1" parent="0" />
        <mxCell id="DSRnqOe3k9bgnWC6aP-b-1" value="" style="ellipse;whiteSpace=wrap;html=1;strokeWidth=2;fillWeight=2;hachureGap=8;fillColor=#e1d5e7;fillStyle=dots;sketch=1;strokeColor=#9673a6;" vertex="1" parent="1">
          <mxGeometry x="230" y="770" width="120" height="60" as="geometry" />
        </mxCell>
        <mxCell id="DSRnqOe3k9bgnWC6aP-b-2" value="" style="rounded=1;whiteSpace=wrap;html=1;strokeWidth=2;fillWeight=4;hachureGap=8;hachureAngle=45;fillColor=#1ba1e2;sketch=1;" vertex="1" parent="1">
          <mxGeometry x="60" y="770" width="120" height="60" as="geometry" />
        </mxCell>
        <mxCell id="DSRnqOe3k9bgnWC6aP-b-3" value="&lt;span style=&quot;font-size: 14px;&quot;&gt;&lt;b style=&quot;&quot;&gt;&lt;font face=&quot;Lucida Console&quot;&gt;Collection&lt;/font&gt;&lt;/b&gt;&lt;/span&gt;" style="ellipse;whiteSpace=wrap;html=1;strokeWidth=2;fillWeight=2;hachureGap=8;fillColor=#e1d5e7;fillStyle=dots;sketch=1;strokeColor=#9673a6;" vertex="1" parent="1">
          <mxGeometry x="340" y="940" width="120" height="60" as="geometry" />
        </mxCell>
        <mxCell id="DSRnqOe3k9bgnWC6aP-b-4" value="" style="rounded=1;whiteSpace=wrap;html=1;strokeWidth=2;fillWeight=4;hachureGap=8;hachureAngle=45;fillColor=#b1ddf0;sketch=1;strokeColor=#10739e;" vertex="1" parent="1">
          <mxGeometry x="60" y="860" width="120" height="60" as="geometry" />
        </mxCell>
        <mxCell id="DSRnqOe3k9bgnWC6aP-b-43" style="edgeStyle=orthogonalEdgeStyle;rounded=0;orthogonalLoop=1;jettySize=auto;html=1;exitX=1;exitY=0.5;exitDx=0;exitDy=0;entryX=0;entryY=0.5;entryDx=0;entryDy=0;fontFamily=Lucida Console;fontSize=14;" edge="1" parent="1" source="DSRnqOe3k9bgnWC6aP-b-5" target="DSRnqOe3k9bgnWC6aP-b-11">
          <mxGeometry relative="1" as="geometry" />
        </mxCell>
        <mxCell id="DSRnqOe3k9bgnWC6aP-b-44" style="edgeStyle=orthogonalEdgeStyle;rounded=0;orthogonalLoop=1;jettySize=auto;html=1;exitX=1;exitY=0.5;exitDx=0;exitDy=0;entryX=0;entryY=0.5;entryDx=0;entryDy=0;fontFamily=Lucida Console;fontSize=14;" edge="1" parent="1" source="DSRnqOe3k9bgnWC6aP-b-5" target="DSRnqOe3k9bgnWC6aP-b-12">
          <mxGeometry relative="1" as="geometry" />
        </mxCell>
        <mxCell id="DSRnqOe3k9bgnWC6aP-b-45" style="edgeStyle=orthogonalEdgeStyle;rounded=0;orthogonalLoop=1;jettySize=auto;html=1;exitX=1;exitY=0.5;exitDx=0;exitDy=0;entryX=0;entryY=0.5;entryDx=0;entryDy=0;fontFamily=Lucida Console;fontSize=14;" edge="1" parent="1" source="DSRnqOe3k9bgnWC6aP-b-5" target="DSRnqOe3k9bgnWC6aP-b-10">
          <mxGeometry relative="1" as="geometry" />
        </mxCell>
        <mxCell id="DSRnqOe3k9bgnWC6aP-b-46" style="edgeStyle=orthogonalEdgeStyle;rounded=0;orthogonalLoop=1;jettySize=auto;html=1;exitX=1;exitY=0.5;exitDx=0;exitDy=0;entryX=0;entryY=0.5;entryDx=0;entryDy=0;fontFamily=Lucida Console;fontSize=14;" edge="1" parent="1" source="DSRnqOe3k9bgnWC6aP-b-5" target="DSRnqOe3k9bgnWC6aP-b-19">
          <mxGeometry relative="1" as="geometry" />
        </mxCell>
        <mxCell id="DSRnqOe3k9bgnWC6aP-b-5" value="&lt;span style=&quot;font-size: 14px;&quot;&gt;&lt;b style=&quot;&quot;&gt;&lt;font face=&quot;Lucida Console&quot;&gt;List&lt;/font&gt;&lt;/b&gt;&lt;/span&gt;" style="ellipse;whiteSpace=wrap;html=1;strokeWidth=2;fillWeight=2;hachureGap=8;fillColor=#e1d5e7;fillStyle=dots;sketch=1;strokeColor=#9673a6;" vertex="1" parent="1">
          <mxGeometry x="-413" y="1724" width="120" height="60" as="geometry" />
        </mxCell>
        <mxCell id="DSRnqOe3k9bgnWC6aP-b-6" value="" style="ellipse;whiteSpace=wrap;html=1;strokeWidth=2;fillWeight=2;hachureGap=8;fillColor=#e1d5e7;fillStyle=dots;sketch=1;strokeColor=#9673a6;" vertex="1" parent="1">
          <mxGeometry x="240" y="780" width="120" height="60" as="geometry" />
        </mxCell>
        <mxCell id="DSRnqOe3k9bgnWC6aP-b-34" style="edgeStyle=orthogonalEdgeStyle;rounded=0;orthogonalLoop=1;jettySize=auto;html=1;exitX=0.5;exitY=1;exitDx=0;exitDy=0;entryX=0.5;entryY=0;entryDx=0;entryDy=0;fontFamily=Lucida Console;fontSize=14;" edge="1" parent="1" source="DSRnqOe3k9bgnWC6aP-b-7" target="DSRnqOe3k9bgnWC6aP-b-25">
          <mxGeometry relative="1" as="geometry" />
        </mxCell>
        <mxCell id="DSRnqOe3k9bgnWC6aP-b-35" style="edgeStyle=orthogonalEdgeStyle;rounded=0;orthogonalLoop=1;jettySize=auto;html=1;exitX=0;exitY=1;exitDx=0;exitDy=0;entryX=0.5;entryY=0;entryDx=0;entryDy=0;fontFamily=Lucida Console;fontSize=14;" edge="1" parent="1" source="DSRnqOe3k9bgnWC6aP-b-7" target="DSRnqOe3k9bgnWC6aP-b-24">
          <mxGeometry relative="1" as="geometry" />
        </mxCell>
        <mxCell id="DSRnqOe3k9bgnWC6aP-b-36" style="edgeStyle=orthogonalEdgeStyle;rounded=0;orthogonalLoop=1;jettySize=auto;html=1;exitX=0;exitY=1;exitDx=0;exitDy=0;entryX=0.5;entryY=0;entryDx=0;entryDy=0;fontFamily=Lucida Console;fontSize=14;" edge="1" parent="1" source="DSRnqOe3k9bgnWC6aP-b-7" target="DSRnqOe3k9bgnWC6aP-b-33">
          <mxGeometry relative="1" as="geometry" />
        </mxCell>
        <mxCell id="DSRnqOe3k9bgnWC6aP-b-38" style="edgeStyle=orthogonalEdgeStyle;rounded=0;orthogonalLoop=1;jettySize=auto;html=1;exitX=1;exitY=1;exitDx=0;exitDy=0;entryX=0.5;entryY=0;entryDx=0;entryDy=0;fontFamily=Lucida Console;fontSize=14;" edge="1" parent="1" source="DSRnqOe3k9bgnWC6aP-b-7" target="DSRnqOe3k9bgnWC6aP-b-27">
          <mxGeometry relative="1" as="geometry" />
        </mxCell>
        <mxCell id="DSRnqOe3k9bgnWC6aP-b-41" style="edgeStyle=orthogonalEdgeStyle;rounded=0;orthogonalLoop=1;jettySize=auto;html=1;exitX=1;exitY=1;exitDx=0;exitDy=0;entryX=0.5;entryY=0;entryDx=0;entryDy=0;fontFamily=Lucida Console;fontSize=14;" edge="1" parent="1" source="DSRnqOe3k9bgnWC6aP-b-7" target="DSRnqOe3k9bgnWC6aP-b-32">
          <mxGeometry relative="1" as="geometry" />
        </mxCell>
        <mxCell id="DSRnqOe3k9bgnWC6aP-b-7" value="&lt;span style=&quot;font-size: 14px;&quot;&gt;&lt;b style=&quot;&quot;&gt;&lt;font face=&quot;Lucida Console&quot;&gt;Set&lt;/font&gt;&lt;/b&gt;&lt;/span&gt;" style="ellipse;whiteSpace=wrap;html=1;strokeWidth=2;fillWeight=2;hachureGap=8;fillColor=#e1d5e7;fillStyle=dots;sketch=1;strokeColor=#9673a6;" vertex="1" parent="1">
          <mxGeometry x="750" y="1080" width="120" height="60" as="geometry" />
        </mxCell>
        <mxCell id="DSRnqOe3k9bgnWC6aP-b-8" value="&lt;span style=&quot;font-size: 14px;&quot;&gt;&lt;b style=&quot;&quot;&gt;&lt;font face=&quot;Lucida Console&quot;&gt;Queue&lt;/font&gt;&lt;/b&gt;&lt;/span&gt;" style="ellipse;whiteSpace=wrap;html=1;strokeWidth=2;fillWeight=2;hachureGap=8;fillColor=#e1d5e7;fillStyle=dots;sketch=1;strokeColor=#9673a6;" vertex="1" parent="1">
          <mxGeometry x="1590" y="1100" width="120" height="60" as="geometry" />
        </mxCell>
        <mxCell id="DSRnqOe3k9bgnWC6aP-b-9" value="&lt;span style=&quot;font-size: 14px;&quot;&gt;&lt;b style=&quot;&quot;&gt;&lt;font face=&quot;Lucida Console&quot;&gt;Deque&lt;/font&gt;&lt;/b&gt;&lt;/span&gt;" style="ellipse;whiteSpace=wrap;html=1;strokeWidth=2;fillWeight=2;hachureGap=8;fillColor=#e1d5e7;fillStyle=dots;sketch=1;strokeColor=#9673a6;" vertex="1" parent="1">
          <mxGeometry x="1590" y="1210" width="120" height="60" as="geometry" />
        </mxCell>
        <mxCell id="DSRnqOe3k9bgnWC6aP-b-10" value="&lt;span style=&quot;font-size: 14px;&quot;&gt;&lt;b style=&quot;&quot;&gt;&lt;font face=&quot;Lucida Console&quot;&gt;ArrayList&lt;/font&gt;&lt;/b&gt;&lt;/span&gt;" style="ellipse;whiteSpace=wrap;html=1;strokeWidth=2;fillWeight=2;hachureGap=8;fillColor=#e1d5e7;fillStyle=dots;sketch=1;strokeColor=#9673a6;" vertex="1" parent="1">
          <mxGeometry x="-220" y="1520" width="120" height="60" as="geometry" />
        </mxCell>
        <mxCell id="DSRnqOe3k9bgnWC6aP-b-11" value="&lt;span style=&quot;font-size: 14px;&quot;&gt;&lt;b style=&quot;&quot;&gt;&lt;font face=&quot;Lucida Console&quot;&gt;LinkedList&lt;/font&gt;&lt;/b&gt;&lt;/span&gt;" style="ellipse;whiteSpace=wrap;html=1;strokeWidth=2;fillWeight=2;hachureGap=8;fillColor=#e1d5e7;fillStyle=dots;sketch=1;strokeColor=#9673a6;" vertex="1" parent="1">
          <mxGeometry x="-220" y="1650" width="120" height="60" as="geometry" />
        </mxCell>
        <mxCell id="DSRnqOe3k9bgnWC6aP-b-47" style="edgeStyle=orthogonalEdgeStyle;rounded=0;orthogonalLoop=1;jettySize=auto;html=1;exitX=1;exitY=0.5;exitDx=0;exitDy=0;entryX=0;entryY=0.5;entryDx=0;entryDy=0;fontFamily=Lucida Console;fontSize=14;" edge="1" parent="1" source="DSRnqOe3k9bgnWC6aP-b-12" target="DSRnqOe3k9bgnWC6aP-b-13">
          <mxGeometry relative="1" as="geometry" />
        </mxCell>
        <mxCell id="DSRnqOe3k9bgnWC6aP-b-12" value="&lt;span style=&quot;font-size: 14px;&quot;&gt;&lt;b style=&quot;&quot;&gt;&lt;font face=&quot;Lucida Console&quot;&gt;Vector&lt;/font&gt;&lt;/b&gt;&lt;/span&gt;" style="ellipse;whiteSpace=wrap;html=1;strokeWidth=2;fillWeight=2;hachureGap=8;fillColor=#e1d5e7;fillStyle=dots;sketch=1;strokeColor=#9673a6;" vertex="1" parent="1">
          <mxGeometry x="-220" y="1780" width="120" height="60" as="geometry" />
        </mxCell>
        <mxCell id="DSRnqOe3k9bgnWC6aP-b-13" value="&lt;span style=&quot;font-size: 14px;&quot;&gt;&lt;b style=&quot;&quot;&gt;&lt;font face=&quot;Lucida Console&quot;&gt;Stack&lt;/font&gt;&lt;/b&gt;&lt;/span&gt;" style="ellipse;whiteSpace=wrap;html=1;strokeWidth=2;fillWeight=2;hachureGap=8;fillColor=#e1d5e7;fillStyle=dots;sketch=1;strokeColor=#9673a6;" vertex="1" parent="1">
          <mxGeometry x="-50" y="1780" width="120" height="60" as="geometry" />
        </mxCell>
        <mxCell id="DSRnqOe3k9bgnWC6aP-b-19" value="&lt;span style=&quot;font-size: 14px;&quot;&gt;&lt;b style=&quot;&quot;&gt;&lt;font face=&quot;Lucida Console&quot;&gt;CopyOnWriteArrayList&lt;/font&gt;&lt;/b&gt;&lt;/span&gt;" style="ellipse;whiteSpace=wrap;html=1;strokeWidth=2;fillWeight=2;hachureGap=8;fillStyle=dots;sketch=1;fillColor=#fff2cc;strokeColor=#d6b656;gradientColor=#ffd966;" vertex="1" parent="1">
          <mxGeometry x="-220" y="1890" width="190" height="60" as="geometry" />
        </mxCell>
        <mxCell id="DSRnqOe3k9bgnWC6aP-b-37" style="edgeStyle=orthogonalEdgeStyle;rounded=0;orthogonalLoop=1;jettySize=auto;html=1;exitX=0.5;exitY=1;exitDx=0;exitDy=0;entryX=0.5;entryY=0;entryDx=0;entryDy=0;fontFamily=Lucida Console;fontSize=14;" edge="1" parent="1" source="DSRnqOe3k9bgnWC6aP-b-24" target="DSRnqOe3k9bgnWC6aP-b-28">
          <mxGeometry relative="1" as="geometry" />
        </mxCell>
        <mxCell id="DSRnqOe3k9bgnWC6aP-b-24" value="&lt;span style=&quot;font-size: 14px;&quot;&gt;&lt;b style=&quot;&quot;&gt;&lt;font face=&quot;Lucida Console&quot;&gt;HashSet&lt;/font&gt;&lt;/b&gt;&lt;/span&gt;" style="ellipse;whiteSpace=wrap;html=1;strokeWidth=2;fillWeight=2;hachureGap=8;fillColor=#e1d5e7;fillStyle=dots;sketch=1;strokeColor=#9673a6;" vertex="1" parent="1">
          <mxGeometry x="550" y="1170" width="120" height="60" as="geometry" />
        </mxCell>
        <mxCell id="DSRnqOe3k9bgnWC6aP-b-25" value="&lt;span style=&quot;font-size: 14px;&quot;&gt;&lt;b style=&quot;&quot;&gt;&lt;font face=&quot;Lucida Console&quot;&gt;TreeSet&lt;/font&gt;&lt;/b&gt;&lt;/span&gt;" style="ellipse;whiteSpace=wrap;html=1;strokeWidth=2;fillWeight=2;hachureGap=8;fillColor=#e1d5e7;fillStyle=dots;sketch=1;strokeColor=#9673a6;" vertex="1" parent="1">
          <mxGeometry x="750" y="1170" width="120" height="60" as="geometry" />
        </mxCell>
        <mxCell id="DSRnqOe3k9bgnWC6aP-b-39" style="edgeStyle=orthogonalEdgeStyle;rounded=0;orthogonalLoop=1;jettySize=auto;html=1;exitX=0;exitY=1;exitDx=0;exitDy=0;entryX=0.5;entryY=0;entryDx=0;entryDy=0;fontFamily=Lucida Console;fontSize=14;" edge="1" parent="1" source="DSRnqOe3k9bgnWC6aP-b-27" target="DSRnqOe3k9bgnWC6aP-b-29">
          <mxGeometry relative="1" as="geometry" />
        </mxCell>
        <mxCell id="DSRnqOe3k9bgnWC6aP-b-40" style="edgeStyle=orthogonalEdgeStyle;rounded=0;orthogonalLoop=1;jettySize=auto;html=1;exitX=1;exitY=1;exitDx=0;exitDy=0;fontFamily=Lucida Console;fontSize=14;" edge="1" parent="1" source="DSRnqOe3k9bgnWC6aP-b-27" target="DSRnqOe3k9bgnWC6aP-b-31">
          <mxGeometry relative="1" as="geometry" />
        </mxCell>
        <mxCell id="DSRnqOe3k9bgnWC6aP-b-27" value="&lt;span style=&quot;font-size: 14px;&quot;&gt;&lt;b style=&quot;&quot;&gt;&lt;font face=&quot;Lucida Console&quot;&gt;EnumSet&lt;/font&gt;&lt;/b&gt;&lt;/span&gt;" style="ellipse;whiteSpace=wrap;html=1;strokeWidth=2;fillWeight=2;hachureGap=8;fillColor=#e1d5e7;fillStyle=dots;sketch=1;strokeColor=#9673a6;" vertex="1" parent="1">
          <mxGeometry x="930" y="1170" width="120" height="60" as="geometry" />
        </mxCell>
        <mxCell id="DSRnqOe3k9bgnWC6aP-b-28" value="&lt;font face=&quot;Lucida Console&quot;&gt;&lt;span style=&quot;font-size: 14px;&quot;&gt;&lt;b&gt;LinkedHashSet&lt;/b&gt;&lt;/span&gt;&lt;/font&gt;" style="ellipse;whiteSpace=wrap;html=1;strokeWidth=2;fillWeight=2;hachureGap=8;fillColor=#e1d5e7;fillStyle=dots;sketch=1;strokeColor=#9673a6;" vertex="1" parent="1">
          <mxGeometry x="550" y="1270" width="120" height="60" as="geometry" />
        </mxCell>
        <mxCell id="DSRnqOe3k9bgnWC6aP-b-29" value="&lt;font face=&quot;Lucida Console&quot;&gt;&lt;span style=&quot;font-size: 14px;&quot;&gt;&lt;b&gt;JumboEnumSet&lt;/b&gt;&lt;/span&gt;&lt;/font&gt;" style="ellipse;whiteSpace=wrap;html=1;strokeWidth=2;fillWeight=2;hachureGap=8;fillColor=#e1d5e7;fillStyle=dots;sketch=1;strokeColor=#9673a6;" vertex="1" parent="1">
          <mxGeometry x="870" y="1270" width="120" height="60" as="geometry" />
        </mxCell>
        <mxCell id="DSRnqOe3k9bgnWC6aP-b-31" value="&lt;font face=&quot;Lucida Console&quot;&gt;&lt;span style=&quot;font-size: 14px;&quot;&gt;&lt;b&gt;RegularEnumSet&lt;/b&gt;&lt;/span&gt;&lt;/font&gt;" style="ellipse;whiteSpace=wrap;html=1;strokeWidth=2;fillWeight=2;hachureGap=8;fillColor=#e1d5e7;fillStyle=dots;sketch=1;strokeColor=#9673a6;" vertex="1" parent="1">
          <mxGeometry x="1000" y="1270" width="120" height="60" as="geometry" />
        </mxCell>
        <mxCell id="DSRnqOe3k9bgnWC6aP-b-32" value="&lt;span style=&quot;font-size: 14px;&quot;&gt;&lt;b style=&quot;&quot;&gt;&lt;font face=&quot;Lucida Console&quot;&gt;CopyOnWriteArraySet&lt;/font&gt;&lt;/b&gt;&lt;/span&gt;" style="ellipse;whiteSpace=wrap;html=1;strokeWidth=2;fillWeight=2;hachureGap=8;fillColor=#fff2cc;fillStyle=dots;sketch=1;strokeColor=#d6b656;gradientColor=#ffd966;" vertex="1" parent="1">
          <mxGeometry x="1110" y="1170" width="200" height="60" as="geometry" />
        </mxCell>
        <mxCell id="DSRnqOe3k9bgnWC6aP-b-33" value="&lt;span style=&quot;font-size: 14px;&quot;&gt;&lt;b style=&quot;&quot;&gt;&lt;font face=&quot;Lucida Console&quot;&gt;ConcurrentSkipListSet&lt;/font&gt;&lt;/b&gt;&lt;/span&gt;" style="ellipse;whiteSpace=wrap;html=1;strokeWidth=2;fillWeight=2;hachureGap=8;fillColor=#fff2cc;fillStyle=dots;sketch=1;strokeColor=#d6b656;gradientColor=#ffd966;" vertex="1" parent="1">
          <mxGeometry x="290" y="1170" width="220" height="60" as="geometry" />
        </mxCell>
      </root>
    </mxGraphModel>
  </diagram>
</mxfile>
